# xmcd
#
# Track frame offsets:
#	150
#	22997
#	37030
#
# Disc length: 755 seconds
#
# Revision: 0
# Processed by: cddbd v1.5.2PL0 Copyright (c) Steve Scherf et al.
# Submitted via: audiograbber 1.83.01
#
DISCID=1b02f103
DTITLE=Sakari Kuosmanen - Maankiertäjä Kuu [CDS)
DYEAR=1995
DGENRE=Pop
TTITLE0=Maankiertäjä Kuu
TTITLE1=Tutulla Tähdellä
TTITLE2=Rannalla
EXTD=TR.
EXTT0=
EXTT1=
EXTT2=
PLAYORDER=
